<svg version="1.1" viewBox="0.0 0.0 960.0 720.0" fill="none" stroke="none" stroke-linecap="square" stroke-miterlimit="10" xmlns:xlink="http://www.w3.org/1999/xlink" xmlns="http://www.w3.org/2000/svg"><clipPath id="p.0"><path d="m0 0l960.0 0l0 720.0l-960.0 0l0 -720.0z" clip-rule="nonzero"/></clipPath><g clip-path="url(#p.0)"><path fill="#000000" fill-opacity="0.0" d="m0 0l960.0 0l0 720.0l-960.0 0z" fill-rule="evenodd"/><defs><linearGradient id="p.1" gradientUnits="userSpaceOnUse" gradientTransform="matrix(-23.465515273600133 0.0 0.0 -23.465515273600133 0.0 0.0)" spreadMethod="pad" x1="-20.45545123622726" y1="-32.440858891886656" x2="-37.04816708997343" y2="-15.848324798132271"><stop offset="0.0" stop-color="#fff6db"/><stop offset="1.0" stop-color="#fad15c"/></linearGradient></defs><path fill="url(#p.1)" d="m688.7874 191.3202l-208.78741 361.13385l-208.78741 -361.13385z" fill-rule="evenodd"/><path stroke="#332e44" stroke-width="24.0" stroke-linejoin="round" stroke-linecap="butt" d="m688.7874 191.3202l-208.78741 361.13385l-208.78741 -361.13385z" fill-rule="evenodd"/><path fill="#ffffff" d="m112.250656 415.3596l91.93701 -159.02362l91.937 159.02362z" fill-rule="evenodd"/><path stroke="#332e44" stroke-width="24.0" stroke-linejoin="round" stroke-linecap="butt" d="m112.250656 415.3596l91.93701 -159.02362l91.937 159.02362z" fill-rule="evenodd"/><defs><radialGradient id="p.2" gradientUnits="userSpaceOnUse" gradientTransform="matrix(15.591701395133667 0.0 0.0 15.591701395133667 0.0 0.0)" spreadMethod="pad" cx="30.785523369108045" cy="16.44053791879663" fx="30.785523369108045" fy="16.44053791879663" r="15.59170150756836"><stop offset="0.0" stop-color="#ffffff"/><stop offset="1.0" stop-color="#029302"/></radialGradient></defs><path fill="url(#p.2)" d="m296.12466 415.3596l91.93701 -159.02362l91.93701 159.02362z" fill-rule="evenodd"/><path stroke="#332e44" stroke-width="24.0" stroke-linejoin="round" stroke-linecap="butt" d="m296.12466 415.3596l91.93701 -159.02362l91.93701 159.02362z" fill-rule="evenodd"/><path fill="#ffffff" d="m663.8727 415.3596l91.93701 -159.02362l91.93701 159.02362z" fill-rule="evenodd"/><path stroke="#332e44" stroke-width="24.0" stroke-linejoin="round" stroke-linecap="butt" d="m663.8727 415.3596l91.93701 -159.02362l91.93701 159.02362z" fill-rule="evenodd"/><defs><radialGradient id="p.3" gradientUnits="userSpaceOnUse" gradientTransform="matrix(15.591701395133667 0.0 0.0 15.591701395133667 0.0 0.0)" spreadMethod="pad" cx="42.57859271338246" cy="16.44053791879663" fx="42.57859271338246" fy="16.44053791879663" r="15.59170150756836"><stop offset="0.0" stop-color="#ffffff"/><stop offset="1.0" stop-color="#029302"/></radialGradient></defs><path fill="url(#p.3)" d="m479.9987 415.3596l91.93698 -159.02362l91.93701 159.02362z" fill-rule="evenodd"/><path stroke="#332e44" stroke-width="24.0" stroke-linejoin="round" stroke-linecap="butt" d="m479.9987 415.3596l91.93698 -159.02362l91.93701 159.02362z" fill-rule="evenodd"/><path fill="#000000" fill-opacity="0.0" d="m271.81104 191.60367l208.18896 360.85037" fill-rule="evenodd"/><path stroke="#332e44" stroke-width="24.0" stroke-linejoin="round" stroke-linecap="butt" d="m271.81104 191.60367l208.18896 360.85037" fill-rule="evenodd"/><path fill="#000000" fill-opacity="0.0" d="m688.7874 191.3202l-208.78741 361.13385" fill-rule="evenodd"/><path stroke="#332e44" stroke-width="24.0" stroke-linejoin="round" stroke-linecap="butt" d="m688.7874 191.3202l-208.78741 361.13385" fill-rule="evenodd"/><path fill="#ffffff" d="m296.12598 415.37534l52.677185 -91.14963l52.677155 91.14963z" fill-rule="evenodd"/><path stroke="#332e44" stroke-width="24.0" stroke-linejoin="round" stroke-linecap="butt" d="m296.12598 415.37534l52.677185 -91.14963l52.677155 91.14963z" fill-rule="evenodd"/><path fill="#ffffff" d="m558.5197 415.37534l52.677124 -91.14963l52.677185 91.14963z" fill-rule="evenodd"/><path stroke="#332e44" stroke-width="24.0" stroke-linejoin="round" stroke-linecap="butt" d="m558.5197 415.37534l52.677124 -91.14963l52.677185 91.14963z" fill-rule="evenodd"/><path fill="#ffffff" d="m558.5302 415.39108l-78.53546 135.811l-78.53543 -135.811z" fill-rule="evenodd"/><path stroke="#332e44" stroke-width="24.0" stroke-linejoin="round" stroke-linecap="butt" d="m558.5302 415.39108l-78.53546 135.811l-78.53543 -135.811z" fill-rule="evenodd"/><defs><linearGradient id="p.4" gradientUnits="userSpaceOnUse" gradientTransform="matrix(-11.34873301482216 0.0 0.0 -11.34873301482216 0.0 0.0)" spreadMethod="pad" x1="-42.29555701284513" y1="-24.756772838200966" x2="-34.27068795144885" y2="-32.78143592079572"><stop offset="0.0" stop-color="#ffffff"/><stop offset="1.0" stop-color="#0b5394"/></linearGradient></defs><path fill="url(#p.4)" d="m528.26746 329.2257l-48.2677 85.60632l-48.26773 -85.60632z" fill-rule="evenodd"/><path stroke="#332e44" stroke-width="24.0" stroke-linejoin="round" stroke-linecap="butt" d="m528.26746 329.2257l-48.2677 85.60632l-48.26773 -85.60632z" fill-rule="evenodd"/></g></svg>