<svg version="1.1" viewBox="0.0 0.0 960.0 720.0" fill="none" stroke="none" stroke-linecap="square" stroke-miterlimit="10" xmlns:xlink="http://www.w3.org/1999/xlink" xmlns="http://www.w3.org/2000/svg"><clipPath id="p.0"><path d="m0 0l960.0 0l0 720.0l-960.0 0l0 -720.0z" clip-rule="nonzero"/></clipPath><g clip-path="url(#p.0)"><path fill="#000000" fill-opacity="0.0" d="m0 0l960.0 0l0 720.0l-960.0 0z" fill-rule="evenodd"/><defs><linearGradient id="p.1" gradientUnits="userSpaceOnUse" gradientTransform="matrix(-24.930288462266105 0.0 0.0 -24.930288462266105 0.0 0.0)" spreadMethod="pad" x1="-19.25358453293051" y1="-32.95846509110402" x2="-36.88205679418164" y2="-15.330185295670264"><stop offset="0.0" stop-color="#fff6db"/><stop offset="1.0" stop-color="#fad15c"/></linearGradient></defs><path fill="url(#p.1)" d="m715.6693 178.3727l-235.66931 407.62207l-235.6693 -407.62207z" fill-rule="evenodd"/><path stroke="#332e44" stroke-width="24.0" stroke-linejoin="round" stroke-linecap="butt" d="m715.6693 178.3727l-235.66931 407.62207l-235.6693 -407.62207z" fill-rule="evenodd"/><path fill="#ffffff" d="m112.250656 415.3596l91.93701 -159.02362l91.937 159.02362z" fill-rule="evenodd"/><path stroke="#332e44" stroke-width="24.0" stroke-linejoin="round" stroke-linecap="butt" d="m112.250656 415.3596l91.93701 -159.02362l91.937 159.02362z" fill-rule="evenodd"/><defs><radialGradient id="p.2" gradientUnits="userSpaceOnUse" gradientTransform="matrix(15.591701395133667 0.0 0.0 15.591701395133667 0.0 0.0)" spreadMethod="pad" cx="30.785523369108045" cy="16.44053791879663" fx="30.785523369108045" fy="16.44053791879663" r="15.59170150756836"><stop offset="0.0" stop-color="#ffffff"/><stop offset="1.0" stop-color="#029302"/></radialGradient></defs><path fill="url(#p.2)" d="m296.12466 415.3596l91.93701 -159.02362l91.93701 159.02362z" fill-rule="evenodd"/><path stroke="#332e44" stroke-width="24.0" stroke-linejoin="round" stroke-linecap="butt" d="m296.12466 415.3596l91.93701 -159.02362l91.93701 159.02362z" fill-rule="evenodd"/><path fill="#ffffff" d="m663.8727 415.3596l91.93701 -159.02362l91.93701 159.02362z" fill-rule="evenodd"/><path stroke="#332e44" stroke-width="24.0" stroke-linejoin="round" stroke-linecap="butt" d="m663.8727 415.3596l91.93701 -159.02362l91.93701 159.02362z" fill-rule="evenodd"/><defs><radialGradient id="p.3" gradientUnits="userSpaceOnUse" gradientTransform="matrix(15.591701395133667 0.0 0.0 15.591701395133667 0.0 0.0)" spreadMethod="pad" cx="42.57859271338246" cy="16.44053791879663" fx="42.57859271338246" fy="16.44053791879663" r="15.59170150756836"><stop offset="0.0" stop-color="#ffffff"/><stop offset="1.0" stop-color="#029302"/></radialGradient></defs><path fill="url(#p.3)" d="m479.9987 415.3596l91.93698 -159.02362l91.93701 159.02362z" fill-rule="evenodd"/><path stroke="#332e44" stroke-width="24.0" stroke-linejoin="round" stroke-linecap="butt" d="m479.9987 415.3596l91.93698 -159.02362l91.93701 159.02362z" fill-rule="evenodd"/><path fill="#000000" fill-opacity="0.0" d="m271.81104 225.14436l208.18896 360.8504" fill-rule="evenodd"/><path stroke="#332e44" stroke-width="24.0" stroke-linejoin="round" stroke-linecap="butt" d="m271.81104 225.14436l208.18896 360.8504" fill-rule="evenodd"/><path fill="#000000" fill-opacity="0.0" d="m715.6693 178.3727l-235.68506 407.62207" fill-rule="evenodd"/><path stroke="#332e44" stroke-width="24.0" stroke-linejoin="round" stroke-linecap="butt" d="m715.6693 178.3727l-235.68506 407.62207" fill-rule="evenodd"/><path fill="#ffffff" d="m296.12598 415.37534l42.724426 -73.921265l42.724396 73.921265z" fill-rule="evenodd"/><path stroke="#332e44" stroke-width="24.0" stroke-linejoin="round" stroke-linecap="butt" d="m296.12598 415.37534l42.724426 -73.921265l42.724396 73.921265z" fill-rule="evenodd"/><path fill="#ffffff" d="m578.4252 415.36868l42.724426 -73.921265l42.724426 73.921265z" fill-rule="evenodd"/><path stroke="#332e44" stroke-width="24.0" stroke-linejoin="round" stroke-linecap="butt" d="m578.4252 415.36868l42.724426 -73.921265l42.724426 73.921265z" fill-rule="evenodd"/><defs><radialGradient id="p.4" gradientUnits="userSpaceOnUse" gradientTransform="matrix(-11.267961929439906 0.0 0.0 -11.267961929439906 0.0 0.0)" spreadMethod="pad" cx="-42.59865297786458" cy="-44.23150816910928" fx="-42.59865297786458" fy="-44.23150816910928" r="11.267961502075195"><stop offset="0.0" stop-color="#6fa8dc"/><stop offset="1.0" stop-color="#093053"/></radialGradient></defs><path fill="url(#p.4)" d="m576.04724 415.3596l-96.04724 166.0787l-96.04724 -166.0787z" fill-rule="evenodd"/><path stroke="#332e44" stroke-width="24.0" stroke-linejoin="round" stroke-linecap="butt" d="m576.04724 415.3596l-96.04724 166.0787l-96.04724 -166.0787z" fill-rule="evenodd"/></g></svg>